<svg xmlns="http://www.w3.org/2000/svg" viewBox="0 0 100 100" fill="none">
  <defs>
    <linearGradient id="grad" x1="0%" y1="0%" x2="100%" y2="100%">
      <stop offset="0%" style="stop-color:#00c6ff;stop-opacity:1" />
      <stop offset="50%" style="stop-color:#7c3aed;stop-opacity:1" />
      <stop offset="100%" style="stop-color:#ff0076;stop-opacity:1" />
    </linearGradient>
  </defs>
  
  <!-- Background circle -->
  <circle cx="50" cy="50" r="48" fill="url(#grad)"/>
  
  <!-- Letter S -->
  <path d="M 38 30 Q 32 30 28 34 Q 24 38 24 44 Q 24 50 28 54 L 48 64 Q 52 66 52 70 Q 52 72 50 74 Q 48 76 44 76 Q 40 76 38 74 Q 36 72 36 68 L 28 68 Q 28 76 34 82 Q 40 88 48 88 Q 56 88 62 82 Q 68 76 68 68 Q 68 60 62 56 L 42 46 Q 38 44 38 40 Q 38 38 40 36 Q 42 34 46 34 Q 50 34 52 36 Q 54 38 54 42 L 62 42 Q 62 34 56 28 Q 50 22 42 22 Q 40 22 38 30 Z" fill="white"/>
</svg>
